/* XPM */
static char *_6dbab08111e423fbf5b11d7a7412958njLEnwatigQTDY7o[] = {
/* columns rows colors chars-per-pixel */
"16 16 143 2 ",
"   c None",
".  c #255D9E",
"X  c #255D9F",
"o  c #275E9E",
"O  c #275E9F",
"+  c #32649F",
"@  c #245DA0",
"#  c #255EA0",
"$  c #275FA2",
"%  c #265FA3",
"&  c #275FA3",
"*  c #255EA4",
"=  c #275FA4",
"-  c #265FA6",
";  c #2660A2",
":  c #2761A2",
">  c #2660A3",
",  c #2561A5",
"<  c #2661A4",
"1  c #2660A5",
"2  c #2760A5",
"3  c #2461A6",
"4  c #2660A6",
"5  c #2760A6",
"6  c #2761A7",
"7  c #2762A6",
"8  c #2662A7",
"9  c #2762A7",
"0  c #2D63A2",
"q  c #2860A6",
"w  c #2861A7",
"e  c #2260A8",
"r  c #2761A8",
"t  c #2662A8",
"y  c #2663A8",
"u  c #2762A9",
"i  c #2762AA",
"p  c #2763AA",
"a  c #2663AB",
"s  c #2763AB",
"d  c #2764A9",
"f  c #2764AA",
"g  c #2765AB",
"h  c #2764AC",
"j  c #2765AC",
"k  c #2766AD",
"l  c #2765AE",
"z  c #2861A8",
"x  c #2863A8",
"c  c #2863AA",
"v  c #2866AC",
"b  c #2866AD",
"n  c #3167A7",
"m  c #306AAC",
"M  c #2766B0",
"N  c #2767B1",
"B  c #2867B1",
"V  c #2768B1",
"C  c #2769B3",
"Z  c #2769B4",
"A  c #2669B5",
"S  c #2769B5",
"D  c #2969B0",
"F  c #2869B2",
"G  c #2E6BB1",
"H  c #286AB6",
"J  c #296CB6",
"K  c #286CB7",
"L  c #276CBA",
"P  c #216BBD",
"I  c #296DB9",
"U  c #286CBA",
"Y  c #286DBB",
"T  c #286EBB",
"R  c #286EBC",
"E  c #286FBF",
"W  c #2970BE",
"Q  c #2970BF",
"!  c #3072BB",
"~  c #517AAA",
"^  c #577FAD",
"/  c #4376B0",
"(  c #256FC1",
")  c #2971C1",
"_  c #2871C3",
"`  c #2F74C0",
"'  c #2872C4",
"]  c #2972C4",
"[  c #2973C5",
"{  c #2874C7",
"}  c #2A75C7",
"|  c #2876CB",
" . c #2A76CA",
".. c #2877CD",
"X. c #2979D0",
"o. c #2A7AD0",
"O. c #2A7AD1",
"+. c #2879D2",
"@. c #297CD5",
"#. c #2B7CD4",
"$. c #2B7DD4",
"%. c #2A7CD5",
"&. c #297DD6",
"*. c #2A7ED9",
"=. c #2A7FDA",
"-. c #6888AE",
";. c #738DAC",
":. c #6C8FB9",
">. c #7795B7",
",. c #7995B5",
"<. c #7A99BC",
"1. c #2F82DB",
"2. c #2A80DC",
"3. c #2B82DF",
"4. c #2B83E0",
"5. c #2E85E1",
"6. c #2C87E6",
"7. c #2D8AEA",
"8. c #4C83C0",
"9. c #498AD2",
"0. c #6590C1",
"q. c #6C96C4",
"w. c #6C9BCF",
"e. c #659AD3",
"r. c #699AD0",
"t. c #64A1E2",
"y. c #879CB3",
"u. c #889CB1",
"i. c #809FC2",
"p. c #98AEC6",
"a. c #9CB6D4",
"s. c #A4B3C3",
"d. c #AFBAC6",
"f. c #ACBACA",
"g. c #BBBEC0",
"h. c #B8BFC5",
"j. c #A1BEDD",
"k. c #AAC8E7",
"l. c #AFC9E4",
"z. c #CACBCC",
"x. c #CCCCCD",
"c. c #CACED2",
"v. c #D3D6D9",
/* pixels */
"                                ",
"          $ q z c z :           ",
"        z z , & : q c c         ",
"      u , & & . $ o . , d       ",
"    h a u , 0 -.u.u.;.n - -     ",
"    h h d d ,.g.,.^ ~ 0 . , $   ",
"  N N F C G s.z./ * , : : - q   ",
"  Z Z I K J q.x.d.:.m y q - ,   ",
"  U I _ W R ! 0.f.z.<.d d d u   ",
"  [ R | } _ ( P 8.c.p.F k h d   ",
"    _ o.O.9.e.e.a.v.w.Z C h b   ",
"    &.| 2.t.k.l.a.w.! W C F     ",
"      *.O.4.5.1.$...[ I H       ",
"        6.&.#.@.O.[ ( W         ",
"            7.4.*.#.            ",
"                                "
};
