/* XPM */
static char *_f8e8d3e02cc4247991a5a6091deb850G4JyLoLC33ApPuHI[] = {
/* columns rows colors chars-per-pixel */
"32 32 133 2 ",
"   c None",
".  c #265D9D",
"X  c #2A609F",
"o  c #265FA1",
"O  c #285EA0",
"+  c #2661A5",
"@  c #2961A5",
"#  c #2764AC",
"$  c #2864AC",
"%  c #2E69AB",
"&  c #3467A3",
"*  c #346DAD",
"=  c #3A70AF",
"-  c #2666B2",
";  c #2966B1",
":  c #2669B4",
">  c #286AB4",
",  c #2967B9",
"<  c #266CBB",
"1  c #296DBB",
"2  c #2970BF",
"3  c #3A75B7",
"4  c #3674BA",
"5  c #3976BB",
"6  c #426FA3",
"7  c #4471A6",
"8  c #4071AA",
"9  c #5C7FA8",
"0  c #4779B3",
"q  c #427ABA",
"w  c #276FC1",
"e  c #2671C5",
"r  c #2972C3",
"t  c #2776CC",
"y  c #2976CA",
"u  c #2A78CD",
"i  c #3275C0",
"p  c #3779C3",
"a  c #2779D2",
"s  c #2A7CD4",
"d  c #297ED9",
"f  c #5C81AB",
"g  c #5A84B3",
"h  c #6686AC",
"j  c #6B8AAE",
"k  c #728EAD",
"l  c #688CB6",
"z  c #628AB9",
"x  c #648FBE",
"c  c #718FB1",
"v  c #6D93BD",
"b  c #3D81CB",
"n  c #2B81DC",
"m  c #3782D3",
"M  c #3184DD",
"N  c #2C85E4",
"B  c #2C88E7",
"V  c #2D8AEA",
"C  c #2F8FF3",
"Z  c #2F91F7",
"A  c #2F94FA",
"S  c #3096FC",
"D  c #3099FE",
"F  c #4F86C2",
"G  c #4B90DB",
"H  c #628FC1",
"J  c #6E95C2",
"K  c #7097C3",
"L  c #7A9BC0",
"P  c #799FC9",
"I  c #6499D4",
"U  c #77A0CE",
"Y  c #77A6DA",
"T  c #7CAADD",
"R  c #5699E1",
"E  c #76ABE3",
"W  c #7FAEE1",
"Q  c #869CB4",
"!  c #8A9FB7",
"~  c #829EBD",
"^  c #87A0BD",
"/  c #97A8BB",
"(  c #A9AFB6",
")  c #A2B0BF",
"_  c #AFB5BB",
"`  c #B3B9BE",
"'  c #BAB9B9",
"]  c #BEBCBA",
"[  c #BFBFBE",
"{  c #BDBEBE",
"}  c #8EA6C1",
"|  c #97ABC1",
" . c #98AFC7",
".. c #8AB3DE",
"X. c #96B2D0",
"o. c #96B8DC",
"O. c #99B9DB",
"+. c #AEBCCB",
"@. c #B8BCC1",
"#. c #B8BFC7",
"$. c #BABFC6",
"%. c #BAC1C7",
"&. c #B9C2CD",
"*. c #BDC7D1",
"=. c #B9C9DB",
"-. c #C1C1C0",
";. c #C3C2C1",
":. c #C3C4C5",
">. c #C7C7C6",
",. c gray77",
"<. c #C9C8C7",
"1. c #CBCBCB",
"2. c #C8CAC9",
"3. c #CCCBCA",
"4. c #CDCCCB",
"5. c #CDCDCD",
"6. c #CDCFCE",
"7. c gray81",
"8. c #CECFCF",
"9. c #CECECC",
"0. c gray81",
"q. c #D0CECD",
"w. c #CBCFD2",
"e. c #C0CDDC",
"r. c #CBD0D4",
"t. c #D2D2D2",
"y. c #D8D8D7",
"u. c #DCDCDC",
"i. c #D9E5F0",
"p. c #E0E2E4",
"a. c #ECEBE9",
"s. c #F2F1EE",
"d. c #F5F4F2",
/* pixels */
"                                                                ",
"                                                                ",
"                        . . . . . . . .                         ",
"                    O O $ $ ; , , 1 > % . .                     ",
"                o o $ ; # # + X O $ # , 1 > + .                 ",
"              + o ; $ o o . . . . . . . . : 1 # .               ",
"            + $ # o o o o o . . . . . . . . o - $ .             ",
"          + # $ + + + + o o X X O O . . . . . . ; ; .           ",
"        + # # # o + + + + + X = f j k j f 6 X . . ; o O         ",
"        # - # # # + + + + = ^ _ { { { ] ' ( = . . . - o         ",
"      # # # # # # # # # * / -.[ ` ^ j l j h & . . . o ; o       ",
"      - % - # # # # # # l :.:.{ f @ + + . X + X O . o o o       ",
"      : # - % - # # # # ^ 2.>.) % # @ @ + + + + o o o $ $ o     ",
"    < - # > : : > < > # ^ 9.2.%.g # # # # @ + + + o o o o o     ",
"    1 # # 1 > > > > > : L t.9.9.%.L g # # @ @ + @ + o o o @     ",
"    2 # - 1 2 1 1 1 1 > 3  .6.9.9.2.%.L = # # # + + $ o $ @     ",
"    r $ ; r 2 r 2 1 1 1 1 4 K +.9.t.9.1.| * # # # # + + + +     ",
"    r , $ r r r r r 2 1 1 , < 5 v &.6.9.6.g # # # # # + + #     ",
"    u w : y r r r r r r r 2 1 1 < H r.6.9.v : # # # @ # # #     ",
"      y : y u y y y y r r r r 1 w g r.y.t.x : > % : : # # #     ",
"      d : 1 s s u u y y y y e w i X.u.y.*.q > # - # # - #       ",
"      n a : s d s s m ..o.o.O.O.=.u.u.u.U 1 1 > < - - % #       ",
"        N < e n n n G i.d.s.s.a.a.i.=.U 4 2 < 1 > > # %         ",
"        B N : u n n M R E E ..E Y I b r 2 2 < 2 < # > 1         ",
"          V B : a B B d N d d d a u t y r r r 1 # : 2           ",
"            C B < e B B N N d d s s a u y y 1 # > 2             ",
"              S C y < y N B B N N n s a r - - 2 r               ",
"                  S V y w < < w < < - : < r u y                 ",
"                    D D Z B s y e y a n n m                     ",
"                            S Z Z V V                           ",
"                                                                ",
"                                                                "
};
