/* XPM */
static char *_bf9c4b9777a4a14e1cbd4c3b927c44bzBxKrzAAmfzoVG13[] = {
/* columns rows colors chars-per-pixel */
"64 64 187 2 ",
"   c None",
".  c #1E4E8F",
"X  c #1E508F",
"o  c #1F4F90",
"O  c #1F5395",
"+  c #1F5598",
"@  c #215395",
"#  c #21579B",
"$  c #265D9D",
"%  c #285E9E",
"&  c #2B609F",
"*  c #255EA1",
"=  c #285FA1",
"-  c #245FA8",
";  c #2661A5",
":  c #2962A5",
">  c #2664AB",
",  c #2865AC",
"<  c #2B69AE",
"1  c #3B6CA4",
"2  c #366AA8",
"3  c #2665B1",
"4  c #2865B2",
"5  c #2769B3",
"6  c #286AB4",
"7  c #2966BB",
"8  c #266CBB",
"9  c #296EBB",
"0  c #306FB6",
"q  c #2970BE",
"w  c #3D74B2",
"e  c #3171B9",
"r  c #3B79BF",
"t  c #4374AC",
"y  c #4C77A9",
"u  c #4D78AA",
"i  c #4A74A6",
"p  c #5177A5",
"a  c #537DAC",
"s  c #5B7FAB",
"d  c #467AB6",
"f  c #4A7AB2",
"g  c #457CBB",
"h  c #487CB8",
"j  c #4477B2",
"k  c #537EB0",
"l  c #276CC2",
"z  c #296CC7",
"x  c #2A6AC2",
"c  c #2A6ECA",
"v  c #2973C3",
"b  c #2674C9",
"n  c #2A76CA",
"m  c #2778CE",
"M  c #2B79CE",
"N  c #2A79CD",
"B  c #2672C5",
"V  c #3C7BC3",
"C  c #317CCE",
"Z  c #2B7CD4",
"A  c #2B7FD9",
"S  c #457FC2",
"D  c #5A81AE",
"F  c #4D81BA",
"G  c #5280B5",
"H  c #5686BD",
"J  c #5D87B8",
"K  c #6586AC",
"L  c #6887AB",
"P  c #6D8CAF",
"I  c #7590AF",
"U  c #7991AD",
"Y  c #668AB3",
"T  c #6089B8",
"R  c #688DB8",
"E  c #6C90B9",
"W  c #7293BA",
"Q  c #3F81C9",
"!  c #2C81DC",
"~  c #2C81D0",
"^  c #3780D0",
"/  c #3987DC",
"(  c #3884D6",
")  c #2C85E3",
"_  c #2E88E6",
"`  c #2C87E8",
"'  c #2D89EB",
"]  c #2E8EF2",
"[  c #2F91F6",
"{  c #2F94FA",
"}  c #2F99FD",
"|  c #3095FB",
" . c #3098FD",
".. c #4788CE",
"X. c #4D8ACE",
"o. c #558BC7",
"O. c #5A91CE",
"+. c #4589D3",
"@. c #4989D1",
"#. c #438BDA",
"$. c #488DD9",
"%. c #4287D2",
"&. c #5C9ADE",
"*. c #608EC1",
"=. c #6896C9",
"-. c #799FC7",
";. c #79A4D3",
":. c #5A9BE1",
">. c #7AADE4",
",. c #8699AF",
"<. c #829AB3",
"1. c #8D9EB2",
"2. c #819DBE",
"3. c #90A1B3",
"4. c #96A4B5",
"5. c #92A6BD",
"6. c #9CACBC",
"7. c #97A7B8",
"8. c #A2ACB7",
"9. c #A3ADB9",
"0. c #A7B1B9",
"q. c #ABB4BD",
"w. c #ADB2B6",
"e. c #B3B5B7",
"r. c #BAB8B7",
"t. c #B6BABD",
"y. c #BBBAB9",
"u. c #BCBCBC",
"i. c #BCBDBD",
"p. c #B0B5BA",
"a. c #89A6C7",
"s. c #8DA8C6",
"d. c #81A5CE",
"f. c #94ABC5",
"g. c #9FAFC1",
"h. c #91AFCF",
"j. c #9AB2CE",
"k. c #93B3D6",
"l. c #A0AFC1",
"z. c #A2B1C3",
"x. c #ADB9C5",
"c. c #A7B8CA",
"v. c #ACB9C9",
"b. c #A6B6C7",
"n. c #B4BBC3",
"m. c #B8BEC5",
"M. c #AABFD8",
"N. c #A3BBD7",
"B. c #99BEE7",
"V. c #BCC0C3",
"C. c #B5C1CE",
"Z. c #BCC4CC",
"A. c #BCC6D1",
"S. c #A0C0E4",
"D. c #A8C3E0",
"F. c #BBCEE3",
"G. c #B0CCE9",
"H. c #BFD1E4",
"J. c #C3C4C4",
"K. c #C7C8C7",
"L. c #C4C6C8",
"P. c #C6C8C9",
"I. c #CCCCCC",
"U. c #CED0CF",
"Y. c #C5CBD2",
"T. c #CCCFD1",
"R. c #CFD0D0",
"E. c #CBD3DC",
"W. c #D3D3D3",
"Q. c #D8D8D7",
"!. c #D3D7DA",
"~. c #D6D9DB",
"^. c #DCDCDC",
"/. c #C3D3E4",
"(. c #C6D9EC",
"). c #CBDBEB",
"_. c #C6D6E7",
"`. c #D4DBE2",
"'. c #DEE0E2",
"]. c #D3E0EE",
"[. c #E3E4E3",
"{. c #E7E8E8",
"}. c #ECECEB",
"|. c #EFF0EE",
" X c #F0F0EF",
".X c #E9EFF3",
"XX c #F2F3F2",
/* pixels */
"                                                                                                                                ",
"                                                                                                                                ",
"                                                                                                                                ",
"                                                                                                                                ",
"                                                      $ $ $ % $ # $ $ $ $ $                                                     ",
"                                              % $ $ $ = $ $ % % % % % % $ $ $ $ %                                               ",
"                                          $ % % : % % % = : , , , , : : % % % % $ $ $ %                                         ",
"                                      * $ % % % = , 4 7 x z z z z n n Z N n 6 : % $ $ # $ $                                     ",
"                                  * ; : % % = 7 x x 7 4 , * - $ % = = - 5 9 M ! ~ 6 & % $ $ $                                   ",
"                                % = % : , 4 7 7 - = = * % $ $ $ % % % $ $ # * - 9 N ~ 0 : & $ $ $                               ",
"                            * * % : = 4 4 4 - = = = * $ $ $ $ $ $ % $ $ $ $ $ $ $ $ 5 n n 6 : $ $ #                             ",
"                          ; ; ; - : 7 7 - = = = * = * $ * $ $ $ $ $ $ $ $ $ $ $ $ $ $ * 6 n q : & # $                           ",
"                        ; * ; ; > 4 - = * % ; * $ * * $ $ * ; ; * $ % $ $ $ $ $ $ $ $ $ $ : x z , % $ $                         ",
"                      - ; ; : 4 4 , - : : * ; * * * * $ $ * $ $ * % $ $ $ $ $ * $ $ $ $ $ $ * 4 v 4 % $ $                       ",
"                      ; = - 4 4 , * * ; ; * ; : * * * = ; $ $ $ * * $ * & $ & $ $ $ $ $ $ $ $ $ 3 c 4 $ $ $                     ",
"                    ; ; : 4 4 ; * ; ; ; ; * * * : = * * * & ; ; = * * * * $ $ $ * $ $ $ $ $ $ $ $ ; z , % % $                   ",
"                  ; ; ; 5 3 , * = : ; ; ; ; ; ; ; ; ; & ; * $ * ; ; $ $ & & & & $ + $ & $ $ $ $ # * > x - = = $                 ",
"                - ; > > 4 > , : ; ; ; ; ; ; ; ; ; : ; ; ; : 1 y Y U U 1.3.3.1.,.I K D 1 & $ $ $ $ $ * 4 7 = % %                 ",
"                > > > 3 3 > - - ; ; > > > ; ; ; ; > ; : t P 4.w.i.i.i.i.y.y.r.y.r.e.w.4.D & $ $ $ $ $ * 4 4 % $ $               ",
"              ; > > > 3 - > , , , > > ; > ; ; ; ; ; < D 4.t.i.J.i.i.i.i.i.i.y.r.r.r.y.w.L & ; $ $ $ $ * - 4 - % $               ",
"              > 5 > > > , > > > ; > > > ; ; ; > > , D 9.i.u.J.i.i.V.i.t.q.0.0.4.8.4.8.3.D $ $ $ $ * $ $ * 3 4 = $ $             ",
"            , , , , 3 , , , > > , > > > > > > > , 1 5.V.J.J.i.u.V.q.U Y D D G G G G D i & ; $ $ $ $ $ * % - 4 - $ $             ",
"            > 3 5 > , 5 , > > > > > > , > , > , > Y V.J.J.J.J.J.6.D 2 < < ; ; ; ; $ + & ; $ ; $ * * * $ $ * 4 > = % *           ",
"            3 5 > ; 5 > 5 , 5 , < 5 > , 5 > , , < 5.J.J.J.J.L.t.G ; < ; ; ; ; > ; ; $ $ $ ; ; ; * # = $ * $ - 4 : * $           ",
"          5 5 5 ; > 5 5 < , 5 , 5 5 < > , > 5 5 w C.J.J.L.J.L.6.< ; > ; > ; ; ; ; ; ; & ; ; ; ; * * ; * * $ * 4 : = ;           ",
"          5 5 5 - , 5 5 5 5 5 < > 5 < 5 < 5 > > G V.K.K.L.K.K.5.< ; > ; ; > ; > ; ; ; > ; ; & ; ; ; $ * * * * 3 , * *           ",
"          6 6 5 * 5 5 4 5 5 5 5 5 5 5 5 5 5 > 5 J K.K.K.K.K.K.x.j ; < < ; ; ; ; ; > , ; ; ; ; ; ; : = * * $ $ ; - = = *         ",
"          6 6 , * 8 6 6 6 6 6 6 5 5 5 5 5 5 5 5 J K.I.I.K.K.I.K.5.d < < 5 5 ; 5 ; , > ; ; ; ; ; ; ; ; = * * * * 4 - = $         ",
"          8 9 ; - 7 6 6 9 6 6 6 6 6 6 6 5 6 6 5 F Z.I.P.I.K.I.K.K.b.R w < ; 5 ; ; , , ; ; ; ; ; ; ; ; ; * $ ; * 3 = ; $         ",
"          8 8 - - 8 6 9 6 9 6 9 9 6 9 6 6 6 6 5 0 s.U.U.U.I.K.I.K.Z.V.5.E d < < , ; ; > > > , > ; ; ; ; ; ; ; : - ; ; ;         ",
"          8 9 * ; 8 8 9 9 9 9 9 0 9 6 6 9 5 5 6 5 F v.U.U.I.I.I.U.K.I.K.V.b.W w , , , , > > ; ; > ; ; : : - = : 3 - ; *         ",
"        q q q * > 8 9 q 9 9 9 9 9 9 9 9 9 9 9 6 6 0 H c.U.U.I.U.U.U.I.I.I.K.Z.6.G , , ; , > , ; , ; ; ; ; : : - - - : *         ",
"        l 8 l * , q v 9 9 q 9 q q 9 9 9 9 9 9 9 9 6 5 g s.P.U.U.U.U.U.U.I.I.I.P.Z.J > , , ; > > > ; , ; > ; ; ; > > : ;         ",
"          v v * - v q 9 v 9 v 9 q 9 q 9 8 9 9 9 9 9 9 9 q H f.Z.U.U.U.U.U.P.I.I.P.x.f > , 5 , , > ; , > ; ; ; ; > ; ; ;         ",
"          n v ; * z v v v v q v q q q q q q 8 q 9 9 8 9 q 9 9 H 5.C.U.U.U.I.U.I.I.K.2.< , , , , > > ; > ; > ; ; > > ; ;         ",
"          n n 5 # v n v v v v v v B v v q q q q 9 9 9 9 0 9 9 9 9 H f.I.U.U.U.U.I.I.z.w > 5 , , > , ; > > ; > > 3 ; ; ;         ",
"          n n 9 @ v n v v v n v v v v q v v q q q q q q 9 9 9 9 9 9 F f.U.U.U.U.U.U.x.d , , , , < > > > > ; > > , ; ; :         ",
"          m n v @ 9 n n n n n v n v v n v q v v v q q B q q 9 9 9 8 9 T A.W.W.U.U.U.x.d 5 5 5 5 < > < > > > > > , , > :         ",
"          M b M - ; M M n n n n n n n v v n n v v v v v q q q q q 9 9 o.A.W.W.W.W.U.j.w 5 5 5 , < > < > > > 5 > > , ,           ",
"            M Z 8 @ n M Z n n n n m b n n n v v n v v v v v q q q q 9 =.T.W.W.W.W.U.s.0 5 5 5 < 5 5 5 > < > > > > , >           ",
"            Z Z m @ 8 Z Z M n Z N n b M n n n n n v v v v q v q q 9 V h.Q.Q.Q.W.!.R.=.5 5 5 5 6 5 , 5 , 5 > 5 > , , >           ",
"            Z Z A > - m Z Z Z Z ~ N M M M n n n n b m n n v v v v Q -.E.^.Q.Q.Q.Q.C.g 5 9 5 5 5 5 5 5 3 , 5 > , , ,             ",
"              ! A M + l Z Z Z Z m M Z Z M M +.X.........X.X.X.O.-.D.~.'.^.^.^.^.!.-.q 6 9 5 5 5 5 4 5 5 5 > > , 5 >             ",
"              ! A A 3 - Z A A A ! Z ~ Z Z #.S.H.H.F.F.F.H.E.`.`.'.[.[.'.^.'.^.~.j.r q 6 9 5 9 9 6 5 5 5 5 > , 4 , 5             ",
"                ! ! M * 7 A A A A A A ~ ! &.]. XXXXX|.|.}.}.}.{.{.[.[.[.[.'.E.k...9 8 9 9 9 9 5 6 6 6 6 3 - 5 < <               ",
"                ) ) ! 8 # m ) A ! ! ! ! Z &.(..XXXXXXXXX|.|.|.|.}.{.{.'.E.N.=.V q 8 q q 9 9 9 9 8 6 6 5 > 5 4 5 5               ",
"                  ' ) A 3 - A ) ) ! ! ! ! / :.>.B.G.H.(.).).H.H.F.D.k.;.O.Q v q q q q q 9 9 9 9 9 8 6 > , 6 6 6                 ",
"                  ` ' ' A + > ) ) ) _ ! ) ! ! ! / / / $.$.$./ / Q ^ Z M n n n v v v v q q q 9 9 9 8 > - 6 6 6                   ",
"                    ' ' ' Z o 8 ' ` ` ) ) ) ! ! ! ! A A m ! m m M M M M n n n b v v v v v 9 v 9 9 > - 5 9 6 6                   ",
"                      ] ' ] b . 3 ) ` ` ) ) ) ) ) ! ! ! ! ! ! ~ Z Z Z M n n n n n B v v v v q 9 ; * 5 8 0 9                     ",
"                        ] ] ] A O - A ' ' ' ) ) ) ) ) ! ! ! ! ! ! Z Z M Z M M m n b n v v v 9 - * 6 x 9 9                       ",
"                          [ [ ] ) - # b ) ' ' ' ` ) ) ) ! ! ! ! ! Z Z Z Z Z M m n n n n l 5 - - 9 v q q                         ",
"                            [ [ [ ' l # 3 m ) ] ' ' ` ` ) ) ) ! ! ! ! Z Z Z Z M M M b 9 ; - 5 v v v v                           ",
"                              { [ { [ ! 8 # - b ) ' ' ` ` ) ) ) ! ! ! ! ! Z Z Z n 8 ; # , 9 b v v v                             ",
"                                { { { { ' A 8 + + - b ) ) ' ` ` ) ) ! ! ! m l > # + 3 v n n n n                                 ",
"                                    } { } { [ ` m 3 + X O + - 3 5 3 - # O O + > B M Z m C n n                                   ",
"                                      } } {  .| { { ] ) m 8 > - - - - 8 b Z ! ! A C A C A                                       ",
"                                             .} { { { { { [ ] ] ' ' ' ' ` ) ! ! ! ! A                                           ",
"                                                 . .| [ { { ] ] ] ' ' ' _ _ ) !                                                 ",
"                                                          { [ [ ] ] ]                                                           ",
"                                                                                                                                ",
"                                                                                                                                ",
"                                                                                                                                ",
"                                                                                                                                "
};
